HIERARCHY
ROOT Pelvis
{
	OFFSET 0.000000 0.000000 0.000000
	CHANNELS 6 Xposition Yposition Zposition Xrotation Yrotation Zrotation
	JOINT LeftUpLeg_virtual
	{
		OFFSET 0.000000 0.000000 0.000000
		CHANNELS 3 Xrotation Yrotation Zrotation
		JOINT LeftUpLeg
		{
			OFFSET 18.735201 -5.666702 -4.541200
			CHANNELS 3 Xrotation Yrotation Zrotation
			JOINT LeftLeg
			{
				OFFSET -0.021200 -31.938179 0.493100
				CHANNELS 3 Xrotation Yrotation Zrotation
				JOINT LeftFoot
				{
					OFFSET 0.021200 -31.938179 -4.336299
					CHANNELS 3 Xrotation Yrotation Zrotation
					JOINT LeftToeBase
					{
						OFFSET 0.943001 -26.722000 15.023500
						CHANNELS 3 Xrotation Yrotation Zrotation
						End Site
						{
							OFFSET 0 0 0
						}
					}
				}
			}
		}
	}
	JOINT RightUpLeg_virtual
	{
		OFFSET 0.000000 0.000000 0.000000
		CHANNELS 3 Xrotation Yrotation Zrotation
		JOINT RightUpLeg
		{
			OFFSET -18.735201 -5.666702 -4.541200
			CHANNELS 3 Xrotation Yrotation Zrotation
			JOINT RightLeg
			{
				OFFSET 0.018946 -31.938133 0.493100
				CHANNELS 3 Xrotation Yrotation Zrotation
				JOINT RightFoot
				{
					OFFSET -0.018946 -31.938126 -4.336299
					CHANNELS 3 Xrotation Yrotation Zrotation
					JOINT RightToeBase
					{
						OFFSET -0.943001 -26.722004 15.023500
						CHANNELS 3 Xrotation Yrotation Zrotation
						End Site
						{
							OFFSET 0 0 0
						}
					}
				}
			}
		}
	}
	JOINT Hips_virtual
	{
		OFFSET 0.000000 0.000000 0.000000
		CHANNELS 3 Xrotation Yrotation Zrotation
		JOINT Hips
		{
			OFFSET -0.000000 -0.000000 -0.000000
			CHANNELS 3 Xrotation Yrotation Zrotation
			JOINT Spine
			{
				OFFSET 0.000000 10.199997 -0.299500
				CHANNELS 3 Xrotation Yrotation Zrotation
				JOINT Spine1
				{
					OFFSET 0.000000 11.900002 -1.516600
					CHANNELS 3 Xrotation Yrotation Zrotation
					JOINT Spine2
					{
						OFFSET 0.000000 13.600006 -2.842500
						CHANNELS 3 Xrotation Yrotation Zrotation
						JOINT Neck_virtual
						{
							OFFSET 0.000000 0.000000 0.000000
							CHANNELS 3 Xrotation Yrotation Zrotation
							JOINT Neck
							{
								OFFSET 0.000000 9.624100 -2.890100
								CHANNELS 3 Xrotation Yrotation Zrotation
								JOINT Head
								{
									OFFSET 0.000000 14.068802 -1.351900
									CHANNELS 3 Xrotation Yrotation Zrotation
									End Site
									{
										OFFSET 0 0 0
									}
								}
							}
						}
						JOINT LeftShoulder_virtual
						{
							OFFSET 0.000000 0.000000 0.000000
							CHANNELS 3 Xrotation Yrotation Zrotation
							JOINT LeftShoulder
							{
								OFFSET 15.263000 10.923401 -0.547700
								CHANNELS 3 Xrotation Yrotation Zrotation
								JOINT LeftArm
								{
									OFFSET 25.438599 -2.830597 -13.032500
									CHANNELS 3 Xrotation Yrotation Zrotation
									JOINT LeftForeArm
									{
										OFFSET 29.960503 0.000000 0.000000
										CHANNELS 3 Xrotation Yrotation Zrotation
										JOINT LeftHand
										{
											OFFSET 27.849251 0.000000 0.000000
											CHANNELS 3 Xrotation Yrotation Zrotation
											End Site
											{
												OFFSET 0 0 0
											}
										}
									}
								}
							}
						}
						JOINT RightShoulder_virtual
						{
							OFFSET 0.000000 0.000000 0.000000
							CHANNELS 3 Xrotation Yrotation Zrotation
							JOINT RightShoulder
							{
								OFFSET -15.263000 10.923401 -0.547700
								CHANNELS 3 Xrotation Yrotation Zrotation
								JOINT RightArm
								{
									OFFSET -25.438599 -2.830597 -13.032500
									CHANNELS 3 Xrotation Yrotation Zrotation
									JOINT RightForeArm
									{
										OFFSET -29.960503 0.000000 0.000000
										CHANNELS 3 Xrotation Yrotation Zrotation
										JOINT RightHand
										{
											OFFSET -27.849251 0.000000 0.000000
											CHANNELS 3 Xrotation Yrotation Zrotation
											End Site
											{
												OFFSET 0 0 0
											}
										}
									}
								}
							}
						}
					}
				}
			}
		}
	}
}
MOTION
Frames: 4
Frame Time: 0.03333333
-3.264427 84.050270 9.558519 0.000000 0.000000 0.000000 3.497066 -41.619020 5.315684 -42.139723 6.720151 21.439045 54.365222 -11.703641 1.125347 -18.485444 -6.902625 -19.300518 0.000000 0.000000 0.000000 2.708105 -41.037791 5.111206 -21.449570 -4.845794 -35.397592 65.266419 -14.179578 1.919935 -32.238476 2.006948 24.721798 0.000000 0.000000 0.000000 3.387716 -41.351389 5.618631 -0.809215 0.049384 -0.038715 9.946894 10.230229 -6.056123 2.148495 3.028878 0.467456 0.000000 0.000000 0.000000 3.469059 4.200901 0.757419 -1.757648 2.168945 -1.358020 0.000000 0.000000 0.000000 6.437116 3.632248 1.118637 -7.842031 -3.124934 -5.423052 17.537499 8.374421 -41.422365 -173.233569 -44.151186 -163.863847 0.000000 0.000000 0.000000 -1.117474 4.522886 -0.117457 6.842119 12.215181 1.159883 -58.536716 25.126937 63.278465 162.470393 71.341230 -167.645081 0.000000 0.000000 0.000000 
-2.511969 84.308556 9.560671 0.000000 0.000000 0.000000 4.147952 -47.127738 5.878244 -38.780130 7.669212 21.186755 55.072010 -10.936950 2.153807 -21.582191 -4.773838 -17.711183 0.000000 0.000000 0.000000 3.454847 -46.230603 5.852507 -25.650251 1.495362 -34.410052 67.296747 -14.110200 0.596068 -30.742074 4.022647 23.349090 0.000000 0.000000 0.000000 4.015807 -46.691132 6.221481 -0.833926 0.040307 0.007942 10.284533 10.281202 -6.249084 2.049743 2.391282 0.231487 0.000000 0.000000 0.000000 3.301353 3.774605 0.436558 -1.534817 2.810318 -1.057278 0.000000 0.000000 0.000000 6.733160 3.188754 0.830130 -7.561875 -2.445993 -3.564945 14.006248 15.025395 -37.602394 -173.100312 -45.262724 -162.209903 0.000000 0.000000 0.000000 -1.507109 4.131989 -0.165323 7.767305 9.608719 3.511315 -57.650451 29.556342 68.446944 162.745827 66.533071 -169.027962 0.000000 0.000000 0.000000 
-1.952437 84.435585 9.476719 0.000000 0.000000 0.000000 4.709145 -52.390802 6.004408 -36.403071 7.799540 20.850262 57.009929 -9.745233 3.536163 -24.321156 -2.607757 -15.775058 0.000000 0.000000 0.000000 4.399593 -51.395104 6.289386 -29.153358 6.079303 -32.342097 67.362891 -14.297217 -0.280440 -30.127479 5.284120 22.304312 0.000000 0.000000 0.000000 4.690687 -51.637542 6.385579 -0.866154 0.060767 0.037281 10.530087 9.586127 -6.154620 2.011342 1.341293 -0.154027 0.000000 0.000000 0.000000 2.793128 2.941428 0.059816 -1.454931 3.319520 -0.529255 0.000000 0.000000 0.000000 7.081389 2.338574 0.374685 -7.050575 -1.278349 -0.765208 3.958819 17.995023 -31.810366 -170.383686 -52.766176 -157.401614 0.000000 0.000000 0.000000 -1.732545 3.298788 -0.480083 8.967719 7.270093 4.810838 -57.140321 34.243194 72.395907 161.777047 61.923690 -168.908898 0.000000 0.000000 0.000000 
-1.628059 84.416710 9.425974 0.000000 0.000000 0.000000 4.989475 -56.238780 5.544936 -35.407147 7.263455 20.690829 59.601849 -8.469394 4.967058 -26.529066 -0.768913 -14.288699 0.000000 0.000000 0.000000 5.209656 -55.342940 6.198888 -31.184851 8.230575 -30.095255 65.809221 -14.610569 -0.732520 -29.776029 5.864286 22.235063 0.000000 0.000000 0.000000 5.128938 -55.111861 5.957848 -0.887578 0.096649 0.014645 10.466100 8.128597 -5.751065 1.993733 -0.003859 -0.567026 0.000000 0.000000 0.000000 2.109121 1.774073 -0.267004 -1.446599 3.640985 0.146175 0.000000 0.000000 0.000000 7.423172 1.139122 -0.073757 -6.275534 0.110987 2.217024 -10.514550 15.046019 -26.646540 -157.592545 -67.203946 -142.178283 0.000000 0.000000 0.000000 -1.726382 2.085517 -0.962061 10.328300 5.196626 4.676563 -56.645112 37.777080 76.314837 159.070502 58.231106 -167.211828 0.000000 0.000000 0.000000 
